<svg width="512" height="512" xmlns="http://www.w3.org/2000/svg">

 <g>
  <title>background</title>
  <rect fill="none" id="canvas_background" height="602" width="802" y="-1" x="-1"/>
 </g>
 <g>
  <title>Layer 1</title>
  <g id="svg_1">
   <path id="svg_2" d="m15,361l91,0c20.151,0 51.121,19.681 87.204,55.419c29.199,28.92 51.623,58.354 51.844,58.645c3.912,5.158 10.656,7.198 16.733,5.154c6.106,-2.054 10.219,-7.776 10.219,-14.218l0,-150c33.084,0 60,-26.916 60,-60s-26.916,-60 -60,-60l0,-150c0,-6.442 -4.113,-12.164 -10.219,-14.218c-6.106,-2.053 -12.84,0.021 -16.733,5.154c-0.221,0.292 -22.448,29.492 -51.61,58.413c-36.187,35.887 -67.239,55.651 -87.438,55.651l-91,0c-8.284,0 -15,6.716 -15,15l0,180c0,8.284 6.716,15 15,15zm257,-135c16.542,0 30,13.458 30,30s-13.458,30 -30,30l0,-60zm-151,-46.787c26.248,-5.964 57.629,-26.926 93.562,-62.562c10.186,-10.102 19.502,-20.151 27.438,-29.114l0,336.927c-7.936,-8.964 -17.252,-19.012 -27.438,-29.114c-35.934,-35.636 -67.315,-56.598 -93.562,-62.562l0,-153.575zm-91,1.787l61,0l0,150l-61,0l0,-150z"/>
   <path id="svg_3" d="m424.817,96.97c-5.858,5.858 -5.858,15.355 0,21.213c36.875,36.875 57.183,85.819 57.183,137.817s-20.308,100.942 -57.183,137.817c-5.858,5.858 -5.858,15.355 0,21.213c5.857,5.857 15.354,5.859 21.213,0c42.541,-42.541 65.97,-99.019 65.97,-159.03s-23.429,-116.489 -65.97,-159.03c-5.858,-5.858 -15.356,-5.858 -21.213,0z"/>
   <path id="svg_4" d="m361.206,351.419c5.857,5.857 15.354,5.859 21.213,0c25.524,-25.523 39.581,-59.411 39.581,-95.419s-14.057,-69.896 -39.581,-95.419c-5.857,-5.858 -15.355,-5.858 -21.213,0s-5.858,15.355 0,21.213c19.858,19.858 30.794,46.211 30.794,74.206s-10.936,54.348 -30.794,74.206c-5.858,5.858 -5.858,15.355 0,21.213z"/>
  </g>
  <line opacity="0.75" stroke-linecap="undefined" stroke-linejoin="undefined" id="svg_8" y2="513.45" x2="514" y1="-2.55" x1="-2" stroke-width="64" stroke="#000" fill="none"/>
  <line opacity="0.75" stroke-linecap="undefined" stroke-linejoin="undefined" id="svg_9" y2="2.45" x2="546" y1="557.45" x1="-34" stroke-width="64" stroke="#000" fill="none"/>
 </g>
</svg>